<?xml version="1.0" encoding="UTF-8"?>
<svg id="Layer_2" data-name="Layer 2" xmlns="http://www.w3.org/2000/svg" viewBox="0 0 37.03 29.51">
  <defs>
    <style>
      .cls-1 {
        fill: #460000;
      }

      .cls-2 {
        fill: #fff;
      }

      .cls-3 {
        fill: red;
      }

      .cls-4 {
        fill: #a4050e;
      }
    </style>
  </defs>
  <g id="vendingmachine">
    <g>
      <g>
        <g>
          <rect class="cls-1" x="1" y="1" width="2.92" height="2.92"/>
          <g>
            <g>
              <rect x="3.92" y="1" width="1" height="2.92"/>
              <rect y="1" width="1" height="2.92"/>
            </g>
            <g>
              <rect x="1" y="3.92" width="2.92" height="1"/>
              <rect x="1" width="2.92" height="1"/>
            </g>
          </g>
          <rect class="cls-4" x="1.98" y="1" width="1.94" height="1.91"/>
          <rect class="cls-2" x="2.49" y="1.5" width=".91" height=".89"/>
        </g>
        <g>
          <rect class="cls-1" x="9.03" y="1" width="2.92" height="2.92"/>
          <g>
            <g>
              <rect x="11.95" y="1" width="1" height="2.92"/>
              <rect x="8.03" y="1" width="1" height="2.92"/>
            </g>
            <g>
              <rect x="9.03" y="3.92" width="2.92" height="1"/>
              <rect x="9.03" width="2.92" height="1"/>
            </g>
          </g>
          <rect class="cls-4" x="10.01" y="1" width="1.94" height="1.91"/>
          <rect class="cls-2" x="10.52" y="1.5" width=".91" height=".89"/>
        </g>
        <g>
          <rect class="cls-4" x="17.05" y="1" width="2.92" height="2.92"/>
          <g>
            <g>
              <rect x="19.98" y="1" width="1" height="2.92"/>
              <rect x="16.06" y="1" width="1" height="2.92"/>
            </g>
            <g>
              <rect x="17.05" y="3.92" width="2.92" height="1"/>
              <rect x="17.05" width="2.92" height="1"/>
            </g>
          </g>
          <rect class="cls-3" x="18.03" y="1" width="1.94" height="1.91"/>
          <rect class="cls-2" x="18.55" y="1.5" width=".91" height=".89"/>
        </g>
        <g>
          <rect class="cls-1" x="25.08" y="1" width="2.92" height="2.92"/>
          <g>
            <g>
              <rect x="28" y="1" width="1" height="2.92"/>
              <rect x="24.08" y="1" width="1" height="2.92"/>
            </g>
            <g>
              <rect x="25.08" y="3.92" width="2.92" height="1"/>
              <rect x="25.08" width="2.92" height="1"/>
            </g>
          </g>
          <rect class="cls-4" x="26.06" y="1" width="1.94" height="1.91"/>
          <rect class="cls-2" x="26.58" y="1.5" width=".91" height=".89"/>
        </g>
        <g>
          <rect class="cls-1" x="33.11" y="1" width="2.92" height="2.92"/>
          <g>
            <g>
              <rect x="36.03" y="1" width="1" height="2.92"/>
              <rect x="32.11" y="1" width="1" height="2.92"/>
            </g>
            <g>
              <rect x="33.11" y="3.92" width="2.92" height="1"/>
              <rect x="33.11" width="2.92" height="1"/>
            </g>
          </g>
          <rect class="cls-4" x="34.09" y="1" width="1.94" height="1.91"/>
          <rect class="cls-2" x="34.6" y="1.5" width=".91" height=".89"/>
        </g>
      </g>
      <g>
        <g>
          <rect class="cls-1" x="1" y="7.15" width="2.92" height="2.92"/>
          <g>
            <g>
              <rect x="3.92" y="7.15" width="1" height="2.92"/>
              <rect y="7.15" width="1" height="2.92"/>
            </g>
            <g>
              <rect x="1" y="10.07" width="2.92" height="1"/>
              <rect x="1" y="6.15" width="2.92" height="1"/>
            </g>
          </g>
          <rect class="cls-4" x="1.98" y="7.15" width="1.94" height="1.91"/>
          <rect class="cls-2" x="2.49" y="7.65" width=".91" height=".89"/>
        </g>
        <g>
          <rect class="cls-4" x="9.03" y="7.15" width="2.92" height="2.92"/>
          <g>
            <g>
              <rect x="11.95" y="7.15" width="1" height="2.92"/>
              <rect x="8.03" y="7.15" width="1" height="2.92"/>
            </g>
            <g>
              <rect x="9.03" y="10.07" width="2.92" height="1"/>
              <rect x="9.03" y="6.15" width="2.92" height="1"/>
            </g>
          </g>
          <rect class="cls-3" x="10.01" y="7.15" width="1.94" height="1.91"/>
          <rect class="cls-2" x="10.52" y="7.65" width=".91" height=".89"/>
        </g>
        <g>
          <rect class="cls-1" x="25.08" y="7.15" width="2.92" height="2.92"/>
          <g>
            <g>
              <rect x="28" y="7.15" width="1" height="2.92"/>
              <rect x="24.08" y="7.15" width="1" height="2.92"/>
            </g>
            <g>
              <rect x="25.08" y="10.07" width="2.92" height="1"/>
              <rect x="25.08" y="6.15" width="2.92" height="1"/>
            </g>
          </g>
          <rect class="cls-4" x="26.06" y="7.15" width="1.94" height="1.91"/>
          <rect class="cls-2" x="26.58" y="7.65" width=".91" height=".89"/>
        </g>
        <g>
          <rect class="cls-1" x="17.05" y="7.15" width="2.92" height="2.92"/>
          <g>
            <g>
              <rect x="19.98" y="7.15" width="1" height="2.92"/>
              <rect x="16.06" y="7.15" width="1" height="2.92"/>
            </g>
            <g>
              <rect x="17.05" y="10.07" width="2.92" height="1"/>
              <rect x="17.05" y="6.15" width="2.92" height="1"/>
            </g>
          </g>
          <rect class="cls-4" x="18.03" y="7.15" width="1.94" height="1.91"/>
          <rect class="cls-2" x="18.55" y="7.65" width=".91" height=".89"/>
        </g>
        <g>
          <rect class="cls-1" x="33.11" y="7.15" width="2.92" height="2.92"/>
          <g>
            <g>
              <rect x="36.03" y="7.15" width="1" height="2.92"/>
              <rect x="32.11" y="7.15" width="1" height="2.92"/>
            </g>
            <g>
              <rect x="33.11" y="10.07" width="2.92" height="1"/>
              <rect x="33.11" y="6.15" width="2.92" height="1"/>
            </g>
          </g>
          <rect class="cls-4" x="34.09" y="7.15" width="1.94" height="1.91"/>
          <rect class="cls-2" x="34.6" y="7.65" width=".91" height=".89"/>
        </g>
      </g>
      <g>
        <g>
          <rect class="cls-1" x="9.03" y="13.29" width="2.92" height="2.92"/>
          <g>
            <g>
              <rect x="11.95" y="13.29" width="1" height="2.92"/>
              <rect x="8.03" y="13.29" width="1" height="2.92"/>
            </g>
            <g>
              <rect x="9.03" y="16.22" width="2.92" height="1"/>
              <rect x="9.03" y="12.3" width="2.92" height="1"/>
            </g>
          </g>
          <rect class="cls-4" x="10.01" y="13.29" width="1.94" height="1.91"/>
          <rect class="cls-2" x="10.52" y="13.8" width=".91" height=".89"/>
        </g>
        <g>
          <rect class="cls-4" x="1" y="13.29" width="2.92" height="2.92"/>
          <g>
            <g>
              <rect x="3.92" y="13.29" width="1" height="2.92"/>
              <rect y="13.29" width="1" height="2.92"/>
            </g>
            <g>
              <rect x="1" y="16.22" width="2.92" height="1"/>
              <rect x="1" y="12.3" width="2.92" height="1"/>
            </g>
          </g>
          <rect class="cls-3" x="1.98" y="13.29" width="1.94" height="1.91"/>
          <rect class="cls-2" x="2.49" y="13.8" width=".91" height=".89"/>
        </g>
        <g>
          <rect class="cls-1" x="25.08" y="13.29" width="2.92" height="2.92"/>
          <g>
            <g>
              <rect x="28" y="13.29" width="1" height="2.92"/>
              <rect x="24.08" y="13.29" width="1" height="2.92"/>
            </g>
            <g>
              <rect x="25.08" y="16.22" width="2.92" height="1"/>
              <rect x="25.08" y="12.3" width="2.92" height="1"/>
            </g>
          </g>
          <rect class="cls-4" x="26.06" y="13.29" width="1.94" height="1.91"/>
          <rect class="cls-2" x="26.58" y="13.8" width=".91" height=".89"/>
        </g>
        <g>
          <rect class="cls-1" x="17.05" y="13.29" width="2.92" height="2.92"/>
          <g>
            <g>
              <rect x="19.98" y="13.29" width="1" height="2.92"/>
              <rect x="16.06" y="13.29" width="1" height="2.92"/>
            </g>
            <g>
              <rect x="17.05" y="16.22" width="2.92" height="1"/>
              <rect x="17.05" y="12.3" width="2.92" height="1"/>
            </g>
          </g>
          <rect class="cls-4" x="18.03" y="13.29" width="1.94" height="1.91"/>
          <rect class="cls-2" x="18.55" y="13.8" width=".91" height=".89"/>
        </g>
        <g>
          <rect class="cls-1" x="33.11" y="13.29" width="2.92" height="2.92"/>
          <g>
            <g>
              <rect x="36.03" y="13.29" width="1" height="2.92"/>
              <rect x="32.11" y="13.29" width="1" height="2.92"/>
            </g>
            <g>
              <rect x="33.11" y="16.22" width="2.92" height="1"/>
              <rect x="33.11" y="12.3" width="2.92" height="1"/>
            </g>
          </g>
          <rect class="cls-4" x="34.09" y="13.29" width="1.94" height="1.91"/>
          <rect class="cls-2" x="34.6" y="13.8" width=".91" height=".89"/>
        </g>
      </g>
      <g>
        <g>
          <rect class="cls-1" x="1" y="19.44" width="2.92" height="2.92"/>
          <g>
            <g>
              <rect x="3.92" y="19.44" width="1" height="2.92"/>
              <rect y="19.44" width="1" height="2.92"/>
            </g>
            <g>
              <rect x="1" y="22.36" width="2.92" height="1"/>
              <rect x="1" y="18.44" width="2.92" height="1"/>
            </g>
          </g>
          <rect class="cls-4" x="1.98" y="19.44" width="1.94" height="1.91"/>
          <rect class="cls-2" x="2.49" y="19.95" width=".91" height=".89"/>
        </g>
        <g>
          <rect class="cls-1" x="9.03" y="19.44" width="2.92" height="2.92"/>
          <g>
            <g>
              <rect x="11.95" y="19.44" width="1" height="2.92"/>
              <rect x="8.03" y="19.44" width="1" height="2.92"/>
            </g>
            <g>
              <rect x="9.03" y="22.36" width="2.92" height="1"/>
              <rect x="9.03" y="18.44" width="2.92" height="1"/>
            </g>
          </g>
          <rect class="cls-4" x="10.01" y="19.44" width="1.94" height="1.91"/>
          <rect class="cls-2" x="10.52" y="19.95" width=".91" height=".89"/>
        </g>
        <g>
          <rect class="cls-1" x="17.05" y="19.44" width="2.92" height="2.92"/>
          <g>
            <g>
              <rect x="19.98" y="19.44" width="1" height="2.92"/>
              <rect x="16.06" y="19.44" width="1" height="2.92"/>
            </g>
            <g>
              <rect x="17.05" y="22.36" width="2.92" height="1"/>
              <rect x="17.05" y="18.44" width="2.92" height="1"/>
            </g>
          </g>
          <rect class="cls-4" x="18.03" y="19.44" width="1.94" height="1.91"/>
          <rect class="cls-2" x="18.55" y="19.95" width=".91" height=".89"/>
        </g>
        <g>
          <rect class="cls-4" x="33.11" y="19.44" width="2.92" height="2.92"/>
          <g>
            <g>
              <rect x="36.03" y="19.44" width="1" height="2.92"/>
              <rect x="32.11" y="19.44" width="1" height="2.92"/>
            </g>
            <g>
              <rect x="33.11" y="22.36" width="2.92" height="1"/>
              <rect x="33.11" y="18.44" width="2.92" height="1"/>
            </g>
          </g>
          <rect class="cls-3" x="34.09" y="19.44" width="1.94" height="1.91"/>
          <rect class="cls-2" x="34.6" y="19.95" width=".91" height=".89"/>
        </g>
        <g>
          <rect class="cls-1" x="25.08" y="19.44" width="2.92" height="2.92"/>
          <g>
            <g>
              <rect x="28" y="19.44" width="1" height="2.92"/>
              <rect x="24.08" y="19.44" width="1" height="2.92"/>
            </g>
            <g>
              <rect x="25.08" y="22.36" width="2.92" height="1"/>
              <rect x="25.08" y="18.44" width="2.92" height="1"/>
            </g>
          </g>
          <rect class="cls-4" x="26.06" y="19.44" width="1.94" height="1.91"/>
          <rect class="cls-2" x="26.58" y="19.95" width=".91" height=".89"/>
        </g>
      </g>
      <g>
        <g>
          <rect class="cls-1" x="1" y="25.59" width="2.92" height="2.92"/>
          <g>
            <g>
              <rect x="3.92" y="25.59" width="1" height="2.92"/>
              <rect y="25.59" width="1" height="2.92"/>
            </g>
            <g>
              <rect x="1" y="28.51" width="2.92" height="1"/>
              <rect x="1" y="24.59" width="2.92" height="1"/>
            </g>
          </g>
          <rect class="cls-4" x="1.98" y="25.59" width="1.94" height="1.91"/>
          <rect class="cls-2" x="2.49" y="26.1" width=".91" height=".89"/>
        </g>
        <g>
          <rect class="cls-1" x="9.03" y="25.59" width="2.92" height="2.92"/>
          <g>
            <g>
              <rect x="11.95" y="25.59" width="1" height="2.92"/>
              <rect x="8.03" y="25.59" width="1" height="2.92"/>
            </g>
            <g>
              <rect x="9.03" y="28.51" width="2.92" height="1"/>
              <rect x="9.03" y="24.59" width="2.92" height="1"/>
            </g>
          </g>
          <rect class="cls-4" x="10.01" y="25.59" width="1.94" height="1.91"/>
          <rect class="cls-2" x="10.52" y="26.1" width=".91" height=".89"/>
        </g>
        <g>
          <rect class="cls-1" x="17.05" y="25.59" width="2.92" height="2.92"/>
          <g>
            <g>
              <rect x="19.98" y="25.59" width="1" height="2.92"/>
              <rect x="16.06" y="25.59" width="1" height="2.92"/>
            </g>
            <g>
              <rect x="17.05" y="28.51" width="2.92" height="1"/>
              <rect x="17.05" y="24.59" width="2.92" height="1"/>
            </g>
          </g>
          <rect class="cls-4" x="18.03" y="25.59" width="1.94" height="1.91"/>
          <rect class="cls-2" x="18.55" y="26.1" width=".91" height=".89"/>
        </g>
        <g>
          <rect class="cls-4" x="25.08" y="25.59" width="2.92" height="2.92"/>
          <g>
            <g>
              <rect x="28" y="25.59" width="1" height="2.92"/>
              <rect x="24.08" y="25.59" width="1" height="2.92"/>
            </g>
            <g>
              <rect x="25.08" y="28.51" width="2.92" height="1"/>
              <rect x="25.08" y="24.59" width="2.92" height="1"/>
            </g>
          </g>
          <rect class="cls-3" x="26.06" y="25.59" width="1.94" height="1.91"/>
          <rect class="cls-2" x="26.58" y="26.1" width=".91" height=".89"/>
        </g>
        <g>
          <rect class="cls-1" x="33.11" y="25.59" width="2.92" height="2.92"/>
          <g>
            <g>
              <rect x="36.03" y="25.59" width="1" height="2.92"/>
              <rect x="32.11" y="25.59" width="1" height="2.92"/>
            </g>
            <g>
              <rect x="33.11" y="28.51" width="2.92" height="1"/>
              <rect x="33.11" y="24.59" width="2.92" height="1"/>
            </g>
          </g>
          <rect class="cls-4" x="34.09" y="25.59" width="1.94" height="1.91"/>
          <rect class="cls-2" x="34.6" y="26.1" width=".91" height=".89"/>
        </g>
      </g>
    </g>
  </g>
</svg>