<?xml version="1.0" encoding="UTF-8"?>
<svg id="Layer_2" data-name="Layer 2" xmlns="http://www.w3.org/2000/svg" viewBox="0 0 31.1 34.8">
  <defs>
    <style>
      .cls-1 {
        fill: #fff;
      }
    </style>
  </defs>
  <g id="background_anim" data-name="background anim">
    <g>
      <rect class="cls-1" x="10.17" width="1.25" height="1.25"/>
      <rect class="cls-1" x="11.19" y="2.3" width="1.25" height="1.25"/>
      <rect class="cls-1" x="8.71" y="3.69" width="1.25" height="1.25"/>
      <rect class="cls-1" x="12.36" y="3.65" width="1.25" height="1.25"/>
      <rect class="cls-1" x="12.36" y="4.89" width="1.25" height="1.25"/>
      <rect class="cls-1" x="15.06" y="4.89" width="1.25" height="1.25"/>
      <rect class="cls-1" x="13.64" y="6.15" width="1.35" height="1.25"/>
      <rect class="cls-1" x="22.38" y="12.41" width="2.51" height="1.25"/>
      <rect class="cls-1" x="24.9" y="13.66" width="1.25" height="4.95"/>
      <rect class="cls-1" x="21.18" y="14.89" width="1.25" height="1.25"/>
      <rect class="cls-1" x="18.67" y="16.15" width="1.25" height="1.25"/>
      <rect class="cls-1" x="21.17" y="18.62" width="1.25" height="1.25"/>
      <rect class="cls-1" x="18.69" y="22.34" width="1.25" height="1.25"/>
      <rect class="cls-1" x="17.41" y="27.31" width="1.25" height="1.25"/>
      <rect class="cls-1" x="17.39" y="29.81" width="1.25" height="1.25"/>
      <rect class="cls-1" x="16.19" y="31.07" width="1.25" height="1.25"/>
      <rect class="cls-1" x="12.43" y="28.58" width="1.25" height="1.25"/>
      <rect class="cls-1" x="12.41" y="22.44" width="1.25" height="1.25"/>
      <rect class="cls-1" x="24.94" y="22.34" width="1.25" height="1.25"/>
      <rect class="cls-1" x="22.41" y="23.6" width="1.25" height="1.25"/>
      <rect class="cls-1" x="6.22" y="26.08" width="1.25" height="1.25"/>
      <rect class="cls-1" x="1.22" y="23.62" width="1.25" height="1.25"/>
      <rect class="cls-1" x="23.67" y="24.84" width="1.25" height="3.69"/>
      <rect class="cls-1" y="24.84" width="1.25" height="5.02"/>
      <rect class="cls-1" x="1.24" y="29.84" width="1.25" height="2.44"/>
      <rect class="cls-1" x="2.48" y="31.17" width="1.25" height="2.44"/>
      <rect class="cls-1" x="4.98" y="32.36" width="1.25" height="2.44"/>
      <rect class="cls-1" x="27.37" y="28.57" width="1.25" height="1.25"/>
      <rect class="cls-1" x="23.07" y="29.81" width="4.31" height="1.25"/>
      <rect class="cls-1" x="14.96" y="33.55" width="6.17" height="1.25"/>
      <rect class="cls-1" x="5.14" y="33.55" width="8.55" height="1.25"/>
      <rect class="cls-1" x="28.57" y="19.8" width="2.52" height="1.25"/>
      <rect class="cls-1" x="28.57" y="26.08" width="2.52" height="1.25"/>
      <rect class="cls-1" x="19.88" y="32.3" width="2.52" height="1.25"/>
      <rect class="cls-1" x="13.68" y="32.3" width="2.52" height="1.25"/>
      <rect class="cls-1" x="3.71" y="32.36" width="2.52" height="1.25"/>
      <rect class="cls-1" x="29.85" y="19.8" width="1.25" height="7.4"/>
      <rect class="cls-1" x="27.39" y="18.58" width="2.44" height="1.25"/>
      <rect class="cls-1" x="28.58" y="26.13" width="1.25" height="2.46"/>
      <rect class="cls-1" x="9.97" y="24.84" width="1.25" height="2.46"/>
      <rect class="cls-1" x="6.22" y="19.92" width="1.25" height="2.46"/>
      <rect class="cls-1" x="3.12" y="20.55" width="1.25" height="2.46" transform="translate(-18.04 25.52) rotate(-90)"/>
      <rect class="cls-1" x="1.26" y="19.95" width="1.25" height="2.46"/>
      <rect class="cls-1" x="2.51" y="21.16" width="1.25" height="2.46"/>
      <rect class="cls-1" x="6.22" y="16.2" width="1.25" height="2.46"/>
      <rect class="cls-1" x="11.23" y="9.93" width="1.25" height="2.46"/>
      <rect class="cls-1" x="7.5" y="6.21" width="1.25" height="2.46"/>
      <rect class="cls-1" x="2.5" y="9.93" width="1.25" height="3.72"/>
      <rect class="cls-1" x=".02" y="14.88" width="1.25" height="6.22"/>
      <rect class="cls-1" x="22.41" y="28.58" width="1.25" height="2.46"/>
      <rect class="cls-1" x="21.15" y="31.09" width="1.25" height="2.46"/>
      <rect class="cls-1" x="14.96" y="32.34" width="1.25" height="2.46"/>
      <rect class="cls-1" x="14.9" y="17.36" width="1.25" height="1.25"/>
      <rect class="cls-1" x="9.96" y="19.89" width="1.25" height="1.25"/>
      <rect class="cls-1" x="1.24" y="13.64" width="1.25" height="1.25"/>
      <rect class="cls-1" x="11.18" y="16.14" width="1.25" height="1.25"/>
      <rect class="cls-1" x="9.93" y="8.66" width="1.25" height="1.25"/>
      <rect class="cls-1" x="3.76" y="8.66" width="1.25" height="1.25"/>
      <rect class="cls-1" x="25.51" y="17.36" width="3.11" height="1.25"/>
      <rect class="cls-1" x="18.69" y="9.91" width="2.46" height="1.25"/>
      <rect class="cls-1" x="10.02" y="11.14" width="2.46" height="1.25"/>
      <rect class="cls-1" x="2.5" y="12.4" width="2.46" height="1.25"/>
      <rect class="cls-1" x="4.97" y="7.41" width="4.99" height="1.25"/>
      <rect class="cls-1" x="19.89" y="4.89" width="1.25" height="1.25"/>
      <rect class="cls-1" x="21.14" y="4.89" width="1.25" height="1.25"/>
      <rect class="cls-1" x="21.14" y="6.16" width="1.25" height="1.25"/>
      <rect class="cls-1" x="22.38" y="6.16" width="1.25" height="1.25"/>
      <rect class="cls-1" x="22.38" y="7.38" width="1.25" height="1.25"/>
      <rect class="cls-1" x="22.38" y="11.19" width="1.25" height="2.47"/>
      <rect class="cls-1" x="23.64" y="7.38" width="1.25" height="3.77"/>
      <rect class="cls-1" x="16.3" y="3.65" width="4.85" height="1.25"/>
    </g>
  </g>
</svg>